<svg width="10" height="10" viewBox="0 0 10 10" fill="none" xmlns="http://www.w3.org/2000/svg">
<mask id="path-1-inside-1_102_18" fill="white">
<path fill-rule="evenodd" clip-rule="evenodd" d="M2 5H8C8 3.34315 6.65685 2 5 2C3.34315 2 2 3.34315 2 5ZM10 5C10 7.76142 7.76142 10 5 10C2.23858 10 0 7.76142 0 5C0 2.23858 2.23858 0 5 0C7.76142 0 10 2.23858 10 5Z"/>
</mask>
<path fill-rule="evenodd" clip-rule="evenodd" d="M2 5H8C8 3.34315 6.65685 2 5 2C3.34315 2 2 3.34315 2 5ZM10 5C10 7.76142 7.76142 10 5 10C2.23858 10 0 7.76142 0 5C0 2.23858 2.23858 0 5 0C7.76142 0 10 2.23858 10 5Z" fill="#5E5E5E"/>
<path d="M8 5V7H10V5H8ZM2 5H0V7H2V5ZM8 3H2V7H8V3ZM10 5C10 2.23858 7.76142 0 5 0V4C5.55228 4 6 4.44772 6 5H10ZM5 0C2.23858 0 0 2.23858 0 5H4C4 4.44772 4.44772 4 5 4V0ZM5 12C8.86599 12 12 8.86599 12 5H8C8 6.65685 6.65685 8 5 8V12ZM-2 5C-2 8.86599 1.13401 12 5 12V8C3.34315 8 2 6.65685 2 5H-2ZM5 -2C1.13401 -2 -2 1.13401 -2 5H2C2 3.34315 3.34315 2 5 2V-2ZM12 5C12 1.13401 8.86599 -2 5 -2V2C6.65685 2 8 3.34315 8 5H12Z" fill="#5E5E5E" mask="url(#path-1-inside-1_102_18)"/>
</svg>
