<svg width="50" height="44" viewBox="0 0 50 44" fill="none" xmlns="http://www.w3.org/2000/svg">
<path fill-rule="evenodd" clip-rule="evenodd" d="M44.9442 22C44.9442 30.8936 36.7298 39 25.4294 39C14.1289 39 5.91455 30.8936 5.91455 22C5.91455 13.1064 14.1289 5 25.4294 5C36.7298 5 44.9442 13.1064 44.9442 22ZM49.9442 22C49.9442 34.1503 38.9685 44 25.4294 44C11.8902 44 0.914551 34.1503 0.914551 22C0.914551 9.84974 11.8902 0 25.4294 0C38.9685 0 49.9442 9.84974 49.9442 22ZM22.9002 30.3004L37.8609 16.8857L34.523 13.1631L21.2312 25.0812L16.3357 20.6917L12.9978 24.4143L19.5622 30.3004L21.2312 31.7968L22.9002 30.3004Z" fill="#C6C4C4"/>
</svg>
