<svg width="18" height="12" viewBox="0 0 18 12" fill="none" xmlns="http://www.w3.org/2000/svg">
<mask id="path-1-inside-1_102_12" fill="white">
<path fill-rule="evenodd" clip-rule="evenodd" d="M8.99983 0.500094L8.99982 0.500079L-0.00011759 9.50002C-0.00011759 9.50002 0.716705 9.85843 2.0936 10.2347C3.61515 10.6506 5.94275 11.0882 8.99982 11.0882C12.0569 11.0882 14.3845 10.6506 15.906 10.2347C17.2829 9.85843 17.9998 9.50002 17.9998 9.50002L8.99986 0.500124V0.500063L8.99983 0.500094ZM8.99986 9.08824V3.32855L14.2483 8.57697C12.9294 8.85306 11.1695 9.08824 8.99986 9.08824Z"/>
</mask>
<path fill-rule="evenodd" clip-rule="evenodd" d="M8.99983 0.500094L8.99982 0.500079L-0.00011759 9.50002C-0.00011759 9.50002 0.716705 9.85843 2.0936 10.2347C3.61515 10.6506 5.94275 11.0882 8.99982 11.0882C12.0569 11.0882 14.3845 10.6506 15.906 10.2347C17.2829 9.85843 17.9998 9.50002 17.9998 9.50002L8.99986 0.500124V0.500063L8.99983 0.500094ZM8.99986 9.08824V3.32855L14.2483 8.57697C12.9294 8.85306 11.1695 9.08824 8.99986 9.08824Z" fill="#5E5E5E"/>
<path d="M8.99982 0.500079L10.4144 -0.913793C10.0393 -1.28902 9.53058 -1.49986 9.00006 -1.49992C8.46954 -1.49999 7.96074 -1.28927 7.58561 -0.914135L8.99982 0.500079ZM8.99983 0.500094L7.58528 1.91397C7.96029 2.28916 8.469 2.5 8.99947 2.50009C9.52995 2.50019 10.0387 2.28954 10.4139 1.91448L8.99983 0.500094ZM-0.00011759 9.50002L-1.41433 8.0858C-1.86892 8.54039 -2.07727 9.18579 -1.97429 9.82038C-1.87131 10.455 -1.46956 11.0014 -0.894546 11.2889L-0.00011759 9.50002ZM2.0936 10.2347L1.56634 12.164L1.56634 12.164L2.0936 10.2347ZM15.906 10.2347L16.4333 12.164L16.4333 12.164L15.906 10.2347ZM17.9998 9.50002L18.8942 11.2889C19.4692 11.0014 19.871 10.455 19.9739 9.82038C20.0769 9.18579 19.8686 8.54039 19.414 8.0858L17.9998 9.50002ZM8.99986 0.500124H6.99986C6.99986 1.03056 7.21058 1.53927 7.58565 1.91434L8.99986 0.500124ZM8.99986 0.500063H10.9999C10.9999 -0.308817 10.5126 -1.03806 9.76534 -1.34765C9.01805 -1.65724 8.15786 -1.48622 7.58582 -0.914321L8.99986 0.500063ZM8.99986 9.08824H6.99986C6.99986 9.61867 7.21058 10.1274 7.58565 10.5025C7.96073 10.8775 8.46943 11.0882 8.99987 11.0882L8.99986 9.08824ZM8.99986 3.32855L10.4141 1.91434C9.84208 1.34234 8.98185 1.17123 8.2345 1.48079C7.48715 1.79035 6.99986 2.51963 6.99986 3.32855H8.99986ZM14.2483 8.57697L14.6581 10.5345C15.3769 10.3841 15.9554 9.85176 16.165 9.14795C16.3747 8.44414 16.1818 7.68203 15.6625 7.16275L14.2483 8.57697ZM7.58526 1.91395L7.58528 1.91397L10.4144 -0.913777L10.4144 -0.913793L7.58526 1.91395ZM1.4141 10.9142L10.414 1.91429L7.58561 -0.914135L-1.41433 8.0858L1.4141 10.9142ZM2.62085 8.30548C2.00303 8.13663 1.54557 7.97515 1.25538 7.86228C1.11029 7.80585 1.00706 7.76159 0.946561 7.73467C0.916316 7.72121 0.896765 7.71209 0.888016 7.70795C0.883642 7.70588 0.88197 7.70506 0.883014 7.70557C0.883536 7.70583 0.884738 7.70641 0.88662 7.70734C0.887561 7.7078 0.888672 7.70835 0.889954 7.70899C0.890594 7.70931 0.891278 7.70965 0.892004 7.71001C0.892367 7.71019 0.892741 7.71038 0.893125 7.71057C0.893317 7.71067 0.893614 7.71081 0.89371 7.71086C0.894009 7.71101 0.89431 7.71116 -0.00011759 9.50002C-0.894546 11.2889 -0.894238 11.289 -0.893929 11.2892C-0.893822 11.2892 -0.893509 11.2894 -0.893295 11.2895C-0.892867 11.2897 -0.892427 11.2899 -0.891977 11.2902C-0.891076 11.2906 -0.89013 11.2911 -0.889139 11.2916C-0.887158 11.2925 -0.884997 11.2936 -0.882658 11.2948C-0.877979 11.2971 -0.872585 11.2997 -0.866477 11.3027C-0.85426 11.3086 -0.839187 11.3159 -0.821271 11.3243C-0.78544 11.3413 -0.738233 11.3631 -0.679761 11.3891C-0.562824 11.4412 -0.400792 11.51 -0.194566 11.5902C0.217875 11.7507 0.807273 11.9565 1.56634 12.164L2.62085 8.30548ZM8.99982 9.08824C6.13547 9.08824 3.98527 8.67837 2.62085 8.30548L1.56634 12.164C3.24503 12.6228 5.75003 13.0882 8.99982 13.0882V9.08824ZM15.3788 8.30548C14.0144 8.67837 11.8642 9.08824 8.99982 9.08824V13.0882C12.2496 13.0882 14.7546 12.6228 16.4333 12.164L15.3788 8.30548ZM17.9998 9.50002C17.1053 7.71116 17.1056 7.71101 17.1059 7.71086C17.106 7.71081 17.1063 7.71066 17.1065 7.71057C17.1069 7.71038 17.1073 7.71019 17.1076 7.71001C17.1084 7.70965 17.109 7.70931 17.1097 7.70899C17.111 7.70835 17.1121 7.7078 17.113 7.70734C17.1149 7.70641 17.1161 7.70583 17.1166 7.70557C17.1177 7.70506 17.116 7.70588 17.1116 7.70795C17.1029 7.71209 17.0833 7.72121 17.0531 7.73467C16.9926 7.76159 16.8894 7.80585 16.7443 7.86228C16.4541 7.97515 15.9966 8.13663 15.3788 8.30548L16.4333 12.164C17.1924 11.9565 17.7818 11.7507 18.1942 11.5902C18.4004 11.51 18.5625 11.4412 18.6794 11.3891C18.7379 11.3631 18.7851 11.3413 18.8209 11.3244C18.8388 11.3159 18.8539 11.3086 18.8661 11.3027C18.8722 11.2997 18.8776 11.2971 18.8823 11.2948C18.8846 11.2936 18.8868 11.2925 18.8888 11.2916C18.8898 11.2911 18.8907 11.2906 18.8916 11.2902C18.8921 11.2899 18.8925 11.2897 18.8929 11.2895C18.8931 11.2894 18.8935 11.2892 18.8936 11.2892C18.8939 11.289 18.8942 11.2889 17.9998 9.50002ZM7.58565 1.91434L16.5855 10.9142L19.414 8.0858L10.4141 -0.914089L7.58565 1.91434ZM10.9999 0.500124V0.500063H6.99986V0.500124H10.9999ZM7.58582 -0.914321L7.58579 -0.914291L10.4139 1.91448L10.4139 1.91445L7.58582 -0.914321ZM10.9999 9.08824V3.32855H6.99986V9.08824H10.9999ZM15.6625 7.16275L10.4141 1.91434L7.58565 4.74276L12.8341 9.99118L15.6625 7.16275ZM8.99987 11.0882C11.315 11.0882 13.2122 10.8372 14.6581 10.5345L13.8385 6.6194C12.6466 6.86891 11.0241 7.08824 8.99986 7.08824L8.99987 11.0882Z" fill="#5E5E5E" mask="url(#path-1-inside-1_102_12)"/>
</svg>
