<svg width="33" height="33" viewBox="0 0 33 33" fill="none" xmlns="http://www.w3.org/2000/svg">
<mask id="path-1-inside-1_102_44" fill="white">
<path fill-rule="evenodd" clip-rule="evenodd" d="M16.5 33C25.6127 33 33 25.6127 33 16.5C33 7.3873 25.6127 0 16.5 0C7.3873 0 0 7.3873 0 16.5C0 25.6127 7.3873 33 16.5 33ZM14 20C16.7614 20 19 17.7614 19 15C19 12.2386 16.7614 10 14 10C11.2386 10 9 12.2386 9 15C9 17.7614 11.2386 20 14 20ZM14 22C15.8276 22 17.4917 21.2996 18.7383 20.1525L22.2929 23.7071C22.6834 24.0976 23.3166 24.0976 23.7071 23.7071C24.0976 23.3166 24.0976 22.6834 23.7071 22.2929L20.0082 18.594C20.638 17.5434 21 16.314 21 15C21 11.134 17.866 8 14 8C10.134 8 7 11.134 7 15C7 18.866 10.134 22 14 22Z"/>
</mask>
<path fill-rule="evenodd" clip-rule="evenodd" d="M16.5 33C25.6127 33 33 25.6127 33 16.5C33 7.3873 25.6127 0 16.5 0C7.3873 0 0 7.3873 0 16.5C0 25.6127 7.3873 33 16.5 33ZM14 20C16.7614 20 19 17.7614 19 15C19 12.2386 16.7614 10 14 10C11.2386 10 9 12.2386 9 15C9 17.7614 11.2386 20 14 20ZM14 22C15.8276 22 17.4917 21.2996 18.7383 20.1525L22.2929 23.7071C22.6834 24.0976 23.3166 24.0976 23.7071 23.7071C24.0976 23.3166 24.0976 22.6834 23.7071 22.2929L20.0082 18.594C20.638 17.5434 21 16.314 21 15C21 11.134 17.866 8 14 8C10.134 8 7 11.134 7 15C7 18.866 10.134 22 14 22Z" fill="#2A443A"/>
<path d="M18.7383 20.1525L20.1525 18.7383L18.796 17.3818L17.3842 18.6807L18.7383 20.1525ZM22.2929 23.7071L20.8787 25.1213L20.8787 25.1213L22.2929 23.7071ZM23.7071 23.7071L25.1213 25.1213L25.1213 25.1213L23.7071 23.7071ZM23.7071 22.2929L25.1213 20.8787L25.1213 20.8787L23.7071 22.2929ZM20.0082 18.594L18.2928 17.5657L17.4902 18.9044L18.594 20.0082L20.0082 18.594ZM31 16.5C31 24.5081 24.5081 31 16.5 31V35C26.7173 35 35 26.7173 35 16.5H31ZM16.5 2C24.5081 2 31 8.49187 31 16.5H35C35 6.28273 26.7173 -2 16.5 -2V2ZM2 16.5C2 8.49187 8.49187 2 16.5 2V-2C6.28273 -2 -2 6.28273 -2 16.5H2ZM16.5 31C8.49187 31 2 24.5081 2 16.5H-2C-2 26.7173 6.28273 35 16.5 35V31ZM17 15C17 16.6569 15.6569 18 14 18V22C17.866 22 21 18.866 21 15H17ZM14 12C15.6569 12 17 13.3431 17 15H21C21 11.134 17.866 8 14 8V12ZM11 15C11 13.3431 12.3431 12 14 12V8C10.134 8 7 11.134 7 15H11ZM14 18C12.3431 18 11 16.6569 11 15H7C7 18.866 10.134 22 14 22V18ZM17.3842 18.6807C16.4921 19.5015 15.3065 20 14 20V24C16.3487 24 18.4912 23.0977 20.0925 21.6243L17.3842 18.6807ZM23.7071 22.2929L20.1525 18.7383L17.3241 21.5668L20.8787 25.1213L23.7071 22.2929ZM22.2929 22.2929C22.6834 21.9024 23.3166 21.9024 23.7071 22.2929L20.8787 25.1213C22.0503 26.2929 23.9497 26.2929 25.1213 25.1213L22.2929 22.2929ZM22.2929 23.7071C21.9024 23.3166 21.9024 22.6834 22.2929 22.2929L25.1213 25.1213C26.2929 23.9497 26.2929 22.0503 25.1213 20.8787L22.2929 23.7071ZM18.594 20.0082L22.2929 23.7071L25.1213 20.8787L21.4224 17.1798L18.594 20.0082ZM19 15C19 15.9418 18.7415 16.8171 18.2928 17.5657L21.7236 19.6223C22.5344 18.2697 23 16.6862 23 15H19ZM14 10C16.7614 10 19 12.2386 19 15H23C23 10.0294 18.9706 6 14 6V10ZM9 15C9 12.2386 11.2386 10 14 10V6C9.02944 6 5 10.0294 5 15H9ZM14 20C11.2386 20 9 17.7614 9 15H5C5 19.9706 9.02944 24 14 24V20Z" fill="#2A443A" mask="url(#path-1-inside-1_102_44)"/>
</svg>
