<svg width="6" height="14" viewBox="0 0 6 14" fill="none" xmlns="http://www.w3.org/2000/svg">
<path fill-rule="evenodd" clip-rule="evenodd" d="M2.30005 0C2.85233 0 3.30005 0.447715 3.30005 1V1.70024H4.6999C4.97605 1.70024 5.1999 1.9241 5.1999 2.20024C5.1999 2.47638 4.97605 2.70024 4.6999 2.70024H3.30005V4.10025H4.6999C4.97605 4.10025 5.1999 4.32411 5.1999 4.60025C5.1999 4.87639 4.97605 5.10025 4.6999 5.10025H3.30005V6.50024H4.6999C4.97605 6.50024 5.1999 6.7241 5.1999 7.00024C5.1999 7.27639 4.97605 7.50024 4.6999 7.50024H3.30005V9.12821C4.06937 9.50025 4.6 10.2882 4.6 11.2C4.6 12.4703 3.57026 13.5 2.3 13.5C1.02975 13.5 0 12.4703 0 11.2C0 10.2881 0.530677 9.50018 1.30005 9.12817V1C1.30005 0.447715 1.74776 0 2.30005 0ZM1 11.2C1 10.482 1.58203 9.90001 2.3 9.90001C3.01797 9.90001 3.6 10.482 3.6 11.2C3.6 11.918 3.01797 12.5 2.3 12.5C1.58203 12.5 1 11.918 1 11.2Z" fill="#5E5E5E"/>
</svg>
